# xmcd CD database file
#
# Track frame offsets:
#	150
#	30489
#	66911
#	88406
#	113758
#	134500
#	165829
#	191166
#	220868
#	230530
#	249749
#	273881
#	296603
#
# Disc length: 4367 seconds
#
# Revision: 0
# Processed by: cddbd v1.5.2PL0 Copyright (c) Steve Scherf et al.
# Submitted via: CDex 1.51
#
DISCID=bf110d0d
DTITLE=Jan Garbarek/ The Hilliard Ensemble - Officium
DYEAR=1994
DGENRE=Jazz
TTITLE0=Parce Mihi Domine I- Cristobal De Morales 
TTITLE1=Primo Tempore - Anonymus
TTITLE2=Sanctus - Anonymus
TTITLE3=Regnantem Sempiterna - Anonymus
TTITLE4=O Salutaris Hostia - Pierre De La Rue
TTITLE5=Pulcherrima Rosa - Anonymus
TTITLE6=Parce Mihi Domine II- Cristobal De Morales
TTITLE7=Beata Viscera - Pérotin
TTITLE8=Credo - Anonymus
TTITLE9=Ave Maris Stella - Guillaume Dufay
TTITLE10=Virgo Flagellatur - Anonymus 
TTITLE11=Oratio Ieremiae - Anonymus
TTITLE12=Parce Mihi Domine III - Cristobal De Morales
EXTD=YEAR: 1994
EXTT0=
EXTT1=
EXTT2=
EXTT3=
EXTT4=
EXTT5=
EXTT6=
EXTT7=
EXTT8=
EXTT9=
EXTT10=
EXTT11=
EXTT12=
PLAYORDER=
